# xmcd CD database file
#
# Track frame offsets:
#	150
#	19932
#	38713
#	59279
#	81088
#	97652
#	109346
#	148533
#	166451
#	177432
#	192426
#	205562
#	219331
#	229966
#	238884
#	244050
#	261572
#	267198
#	278626
#
# Disc length: 3910 seconds
#
# Revision: 0
# Processed by: cddbd v1.5.2PL0 Copyright (c) Steve Scherf et al.
# Submitted via: CDex 1.51
#
DISCID=110f4413
DTITLE=Brass Akademie Berlin - The Spirit of Ingo Luis
DYEAR=1997
DGENRE=Jazz
TTITLE0=Blue Sese
TTITLE1=Polka Dots and Moonbeams
TTITLE2=Paravent
TTITLE3=My Favourite Things
TTITLE4=As Time Goes By
TTITLE5=Darn That Dream
TTITLE6=Dixie Parade
TTITLE7=Londonderry Air
TTITLE8=My Fair Lady
TTITLE9=Wouldn't it be lovely
TTITLE10=Get me to the church in time
TTITLE11=The rain in Spain
TTITLE12=Show me
TTITLE13=Just you wait
TTITLE14=With a litte bit of luck
TTITLE15=I've grown accustomed to her face
TTITLE16=Ascott Gavotte
TTITLE17=I could have danced tonight
TTITLE18=Despite all Spirits
EXTD=YEAR: 1997
EXTT0=
EXTT1=
EXTT2=
EXTT3=
EXTT4=
EXTT5=
EXTT6=
EXTT7=
EXTT8=
EXTT9=
EXTT10=
EXTT11=
EXTT12=
EXTT13=
EXTT14=
EXTT15=
EXTT16=
EXTT17=
EXTT18=
PLAYORDER=
